# xmcd CD database file
#
# Track frame offsets:
#	182
#	36722
#	79062
#	118057
#
# Disc length: 2122 seconds
#
# Revision: 0
# Processed by: cddbd v1.4PL0 Copyright (c) Steve Scherf et al.
# Submitted via: CDex 1.50
#
DISCID=32084804
DTITLE=Joe Harriott Double Quintet - Indo-Jazz Suite
DYEAR=1966
DGENRE=Jazz
TTITLE0=Overture
TTITLE1=Contrasts
TTITLE2=Raga Megha
TTITLE3=Raga Gaud-Saranga
EXTD=YEAR: 1966
EXTT0=
EXTT1=
EXTT2=
EXTT3=
PLAYORDER=
